<mxfile host="65bd71144e">
    <diagram id="IDggDLyRPkDE95e67uGO" name="Page-1">
        <mxGraphModel dx="3139" dy="2507" grid="1" gridSize="10" guides="1" tooltips="1" connect="1" arrows="1" fold="1" page="1" pageScale="1" pageWidth="827" pageHeight="1169" math="0" shadow="0">
            <root>
                <mxCell id="0"/>
                <mxCell id="1" parent="0"/>
                <mxCell id="234" value="" style="rounded=0;whiteSpace=wrap;html=1;sketch=0;" vertex="1" parent="1">
                    <mxGeometry x="-1240" y="-240" width="2610" height="1370" as="geometry"/>
                </mxCell>
                <mxCell id="88" value="" style="rounded=1;whiteSpace=wrap;html=1;fillColor=default;" parent="1" vertex="1">
                    <mxGeometry x="-1120" y="400" width="2240" height="100" as="geometry"/>
                </mxCell>
                <mxCell id="39" value="" style="rounded=1;whiteSpace=wrap;html=1;" parent="1" vertex="1">
                    <mxGeometry x="-1120" y="200" width="2240" height="100" as="geometry"/>
                </mxCell>
                <mxCell id="187" value="" style="rounded=1;whiteSpace=wrap;html=1;fillColor=default;" parent="1" vertex="1">
                    <mxGeometry x="-1120" y="300" width="2240" height="100" as="geometry"/>
                </mxCell>
                <mxCell id="228" value="" style="rounded=1;whiteSpace=wrap;html=1;dashed=1;fillColor=none;" vertex="1" parent="1">
                    <mxGeometry x="-830" y="210" width="140" height="280" as="geometry"/>
                </mxCell>
                <mxCell id="38" value="" style="rounded=1;whiteSpace=wrap;html=1;" parent="1" vertex="1">
                    <mxGeometry x="-1120" y="100" width="2250" height="100" as="geometry"/>
                </mxCell>
                <mxCell id="229" value="" style="rounded=1;whiteSpace=wrap;html=1;dashed=1;fillColor=none;" vertex="1" parent="1">
                    <mxGeometry x="-670" y="110" width="140" height="180" as="geometry"/>
                </mxCell>
                <mxCell id="65" value="" style="rounded=1;whiteSpace=wrap;html=1;dashed=1;fillColor=none;" parent="1" vertex="1">
                    <mxGeometry x="510" y="10" width="140" height="180" as="geometry"/>
                </mxCell>
                <mxCell id="164" value="" style="rounded=1;whiteSpace=wrap;html=1;dashed=1;fillColor=none;" parent="1" vertex="1">
                    <mxGeometry x="-128" y="110" width="135" height="280" as="geometry"/>
                </mxCell>
                <mxCell id="61" value="" style="rounded=1;whiteSpace=wrap;html=1;" parent="1" vertex="1">
                    <mxGeometry x="-1120" width="2240" height="100" as="geometry"/>
                </mxCell>
                <mxCell id="196" value="" style="rounded=1;whiteSpace=wrap;html=1;dashed=1;fillColor=none;" parent="1" vertex="1">
                    <mxGeometry x="32.5" y="10" width="140" height="480" as="geometry"/>
                </mxCell>
                <mxCell id="195" value="" style="rounded=1;whiteSpace=wrap;html=1;dashed=1;fillColor=none;" parent="1" vertex="1">
                    <mxGeometry x="190" y="110" width="140" height="380" as="geometry"/>
                </mxCell>
                <mxCell id="146" value="" style="rounded=1;whiteSpace=wrap;html=1;dashed=1;fillColor=none;" parent="1" vertex="1">
                    <mxGeometry x="-320" y="210" width="140" height="550" as="geometry"/>
                </mxCell>
                <mxCell id="85" value="" style="rounded=1;whiteSpace=wrap;html=1;dashed=1;fillColor=none;" parent="1" vertex="1">
                    <mxGeometry x="960" y="10" width="140" height="750" as="geometry"/>
                </mxCell>
                <mxCell id="147" value="" style="rounded=1;whiteSpace=wrap;html=1;dashed=1;fillColor=none;" parent="1" vertex="1">
                    <mxGeometry x="-500" y="210" width="140" height="550" as="geometry"/>
                </mxCell>
                <mxCell id="69" value="" style="rounded=1;whiteSpace=wrap;html=1;dashed=1;fillColor=none;" parent="1" vertex="1">
                    <mxGeometry x="660" y="10" width="140" height="180" as="geometry"/>
                </mxCell>
                <mxCell id="89" value="Service Provider" style="rounded=1;whiteSpace=wrap;html=1;rotation=90;" parent="1" vertex="1">
                    <mxGeometry x="1090" y="430" width="100" height="40" as="geometry"/>
                </mxCell>
                <mxCell id="78" value="" style="rounded=1;whiteSpace=wrap;html=1;dashed=1;fillColor=none;" parent="1" vertex="1">
                    <mxGeometry x="810" y="10" width="140" height="750" as="geometry"/>
                </mxCell>
                <mxCell id="62" value="Data Collector" style="rounded=1;whiteSpace=wrap;html=1;rotation=90;" parent="1" vertex="1">
                    <mxGeometry x="1090" y="30" width="100" height="40" as="geometry"/>
                </mxCell>
                <mxCell id="52" value="" style="rounded=1;whiteSpace=wrap;html=1;dashed=1;fillColor=none;" parent="1" vertex="1">
                    <mxGeometry x="190" y="110" width="140" height="380" as="geometry"/>
                </mxCell>
                <mxCell id="48" style="edgeStyle=orthogonalEdgeStyle;html=1;" parent="1" source="3" target="47" edge="1">
                    <mxGeometry relative="1" as="geometry"/>
                </mxCell>
                <mxCell id="3" value="NLP" style="rounded=1;whiteSpace=wrap;html=1;" parent="1" vertex="1">
                    <mxGeometry x="200" y="220" width="120" height="60" as="geometry"/>
                </mxCell>
                <mxCell id="17" style="edgeStyle=orthogonalEdgeStyle;html=1;entryX=0.5;entryY=1;entryDx=0;entryDy=0;" parent="1" source="4" target="8" edge="1">
                    <mxGeometry relative="1" as="geometry"/>
                </mxCell>
                <mxCell id="4" value="commodity API" style="rounded=1;whiteSpace=wrap;html=1;" parent="1" vertex="1">
                    <mxGeometry x="360" y="120" width="120" height="60" as="geometry"/>
                </mxCell>
                <mxCell id="18" style="edgeStyle=orthogonalEdgeStyle;html=1;entryX=0.55;entryY=0.95;entryDx=0;entryDy=0;entryPerimeter=0;" parent="1" source="5" target="6" edge="1">
                    <mxGeometry relative="1" as="geometry"/>
                </mxCell>
                <mxCell id="5" value="Finance API&lt;br&gt;Crawler" style="rounded=1;whiteSpace=wrap;html=1;" parent="1" vertex="1">
                    <mxGeometry x="520" y="20" width="120" height="60" as="geometry"/>
                </mxCell>
                <mxCell id="6" value="codal" style="ellipse;shape=cloud;whiteSpace=wrap;html=1;" parent="1" vertex="1">
                    <mxGeometry x="514" y="-119" width="120" height="80" as="geometry"/>
                </mxCell>
                <mxCell id="118" style="edgeStyle=orthogonalEdgeStyle;html=1;entryX=0.55;entryY=0.95;entryDx=0;entryDy=0;entryPerimeter=0;fontSize=12;fontColor=#FFFFFF;" parent="1" source="8" target="117" edge="1">
                    <mxGeometry relative="1" as="geometry"/>
                </mxCell>
                <mxCell id="8" value="crawlers" style="rounded=1;whiteSpace=wrap;html=1;" parent="1" vertex="1">
                    <mxGeometry x="360" y="20" width="120" height="60" as="geometry"/>
                </mxCell>
                <mxCell id="116" style="edgeStyle=orthogonalEdgeStyle;html=1;entryX=0.55;entryY=0.95;entryDx=0;entryDy=0;entryPerimeter=0;fontSize=12;fontColor=#FFFFFF;" parent="1" source="9" target="115" edge="1">
                    <mxGeometry relative="1" as="geometry"/>
                </mxCell>
                <mxCell id="9" value="crawlers" style="rounded=1;whiteSpace=wrap;html=1;" parent="1" vertex="1">
                    <mxGeometry x="200" y="20" width="120" height="60" as="geometry"/>
                </mxCell>
                <mxCell id="24" style="edgeStyle=orthogonalEdgeStyle;html=1;entryX=0.5;entryY=1;entryDx=0;entryDy=0;" parent="1" source="19" target="5" edge="1">
                    <mxGeometry relative="1" as="geometry"/>
                </mxCell>
                <mxCell id="19" value="Rahsar BackEnd" style="rounded=1;whiteSpace=wrap;html=1;" parent="1" vertex="1">
                    <mxGeometry x="520" y="590" width="120" height="60" as="geometry"/>
                </mxCell>
                <mxCell id="26" style="edgeStyle=orthogonalEdgeStyle;html=1;entryX=0.5;entryY=1;entryDx=0;entryDy=0;" parent="1" source="20" target="21" edge="1">
                    <mxGeometry relative="1" as="geometry"/>
                </mxCell>
                <mxCell id="20" value="Homa FrontEnd" style="rounded=1;whiteSpace=wrap;html=1;" parent="1" vertex="1">
                    <mxGeometry x="360" y="690" width="120" height="60" as="geometry"/>
                </mxCell>
                <mxCell id="28" style="edgeStyle=orthogonalEdgeStyle;html=1;entryX=0;entryY=0.5;entryDx=0;entryDy=0;" parent="1" source="21" target="4" edge="1">
                    <mxGeometry relative="1" as="geometry">
                        <Array as="points">
                            <mxPoint x="340" y="620"/>
                            <mxPoint x="340" y="150"/>
                        </Array>
                    </mxGeometry>
                </mxCell>
                <mxCell id="34" style="edgeStyle=orthogonalEdgeStyle;html=1;entryX=0.5;entryY=1;entryDx=0;entryDy=0;exitX=0;exitY=0.25;exitDx=0;exitDy=0;" parent="1" target="31" edge="1" source="21">
                    <mxGeometry relative="1" as="geometry">
                        <mxPoint x="420" y="350" as="sourcePoint"/>
                        <Array as="points">
                            <mxPoint x="350" y="605"/>
                            <mxPoint x="350" y="310"/>
                            <mxPoint x="420" y="310"/>
                        </Array>
                    </mxGeometry>
                </mxCell>
                <mxCell id="193" style="edgeStyle=orthogonalEdgeStyle;html=1;entryX=0.5;entryY=1;entryDx=0;entryDy=0;fontFamily=Helvetica;fontSize=12;fontColor=#FFFFFF;" parent="1" source="21" target="190" edge="1">
                    <mxGeometry relative="1" as="geometry">
                        <Array as="points">
                            <mxPoint x="330" y="630"/>
                            <mxPoint x="330" y="560"/>
                            <mxPoint x="260" y="560"/>
                        </Array>
                    </mxGeometry>
                </mxCell>
                <mxCell id="226" style="edgeStyle=orthogonalEdgeStyle;html=1;entryX=0.5;entryY=1;entryDx=0;entryDy=0;" edge="1" parent="1" source="21" target="63">
                    <mxGeometry relative="1" as="geometry">
                        <Array as="points">
                            <mxPoint x="510" y="620"/>
                            <mxPoint x="510" y="220"/>
                            <mxPoint x="580" y="220"/>
                        </Array>
                    </mxGeometry>
                </mxCell>
                <mxCell id="21" value="Homa BackEnd" style="rounded=1;whiteSpace=wrap;html=1;" parent="1" vertex="1">
                    <mxGeometry x="360" y="590" width="120" height="60" as="geometry"/>
                </mxCell>
                <mxCell id="25" style="edgeStyle=orthogonalEdgeStyle;html=1;entryX=0.5;entryY=1;entryDx=0;entryDy=0;" parent="1" source="22" target="19" edge="1">
                    <mxGeometry relative="1" as="geometry"/>
                </mxCell>
                <mxCell id="22" value="Rahsar FrontEnd" style="rounded=1;whiteSpace=wrap;html=1;" parent="1" vertex="1">
                    <mxGeometry x="520" y="690" width="120" height="60" as="geometry"/>
                </mxCell>
                <mxCell id="30" style="edgeStyle=orthogonalEdgeStyle;html=1;" parent="1" source="29" target="21" edge="1">
                    <mxGeometry relative="1" as="geometry">
                        <Array as="points">
                            <mxPoint x="260" y="670"/>
                            <mxPoint x="420" y="670"/>
                        </Array>
                    </mxGeometry>
                </mxCell>
                <mxCell id="29" value="Maskook FrontEnd" style="rounded=1;whiteSpace=wrap;html=1;" parent="1" vertex="1">
                    <mxGeometry x="200" y="690" width="120" height="60" as="geometry"/>
                </mxCell>
                <mxCell id="67" style="edgeStyle=orthogonalEdgeStyle;html=1;entryX=0.5;entryY=1;entryDx=0;entryDy=0;" parent="1" source="31" target="66" edge="1">
                    <mxGeometry relative="1" as="geometry">
                        <Array as="points">
                            <mxPoint x="730" y="230"/>
                        </Array>
                    </mxGeometry>
                </mxCell>
                <mxCell id="82" style="edgeStyle=orthogonalEdgeStyle;html=1;entryX=0;entryY=0.5;entryDx=0;entryDy=0;" parent="1" source="31" target="72" edge="1">
                    <mxGeometry relative="1" as="geometry"/>
                </mxCell>
                <mxCell id="31" value="Zagh API" style="rounded=1;whiteSpace=wrap;html=1;" parent="1" vertex="1">
                    <mxGeometry x="360" y="220" width="120" height="60" as="geometry"/>
                </mxCell>
                <mxCell id="40" value="Data Stage" style="rounded=1;whiteSpace=wrap;html=1;rotation=90;" parent="1" vertex="1">
                    <mxGeometry x="1090" y="130" width="100" height="40" as="geometry"/>
                </mxCell>
                <mxCell id="41" value="Process and AI" style="rounded=1;whiteSpace=wrap;html=1;rotation=90;" parent="1" vertex="1">
                    <mxGeometry x="1090" y="230" width="100" height="40" as="geometry"/>
                </mxCell>
                <mxCell id="45" style="edgeStyle=orthogonalEdgeStyle;html=1;entryX=0.5;entryY=1;entryDx=0;entryDy=0;" parent="1" source="42" target="19" edge="1">
                    <mxGeometry relative="1" as="geometry">
                        <Array as="points">
                            <mxPoint x="740" y="670"/>
                            <mxPoint x="580" y="670"/>
                        </Array>
                    </mxGeometry>
                </mxCell>
                <mxCell id="42" value="Davaam FrontEnd&lt;br&gt;Credit Scoring" style="rounded=1;whiteSpace=wrap;html=1;" parent="1" vertex="1">
                    <mxGeometry x="680" y="690" width="120" height="60" as="geometry"/>
                </mxCell>
                <mxCell id="151" style="edgeStyle=orthogonalEdgeStyle;html=1;entryX=0.5;entryY=1;entryDx=0;entryDy=0;fontSize=12;fontColor=#FFFFFF;" parent="1" source="43" target="84" edge="1">
                    <mxGeometry relative="1" as="geometry"/>
                </mxCell>
                <mxCell id="43" value="Suza FrontEnd&lt;br&gt;FPA" style="rounded=1;whiteSpace=wrap;html=1;" parent="1" vertex="1">
                    <mxGeometry x="970" y="690" width="120" height="60" as="geometry"/>
                </mxCell>
                <mxCell id="194" style="edgeStyle=orthogonalEdgeStyle;html=1;entryX=0.5;entryY=1;entryDx=0;entryDy=0;fontFamily=Helvetica;fontSize=12;fontColor=#FFFFFF;" parent="1" source="46" target="190" edge="1">
                    <mxGeometry relative="1" as="geometry">
                        <Array as="points">
                            <mxPoint x="120" y="560"/>
                            <mxPoint x="260" y="560"/>
                        </Array>
                    </mxGeometry>
                </mxCell>
                <mxCell id="46" value="Graphum" style="rounded=1;whiteSpace=wrap;html=1;" parent="1" vertex="1">
                    <mxGeometry x="40" y="690" width="120" height="60" as="geometry"/>
                </mxCell>
                <mxCell id="49" style="edgeStyle=orthogonalEdgeStyle;html=1;" parent="1" source="47" target="9" edge="1">
                    <mxGeometry relative="1" as="geometry"/>
                </mxCell>
                <mxCell id="47" value="NLP Data Storage&lt;br&gt;(Stage)" style="rounded=1;whiteSpace=wrap;html=1;" parent="1" vertex="1">
                    <mxGeometry x="200" y="120" width="120" height="60" as="geometry"/>
                </mxCell>
                <mxCell id="80" style="edgeStyle=orthogonalEdgeStyle;html=1;entryX=0.55;entryY=0.95;entryDx=0;entryDy=0;entryPerimeter=0;" parent="1" source="54" target="79" edge="1">
                    <mxGeometry relative="1" as="geometry"/>
                </mxCell>
                <mxCell id="54" value="Pando UI" style="rounded=1;whiteSpace=wrap;html=1;" parent="1" vertex="1">
                    <mxGeometry x="820" y="20" width="120" height="60" as="geometry"/>
                </mxCell>
                <mxCell id="107" style="edgeStyle=orthogonalEdgeStyle;html=1;entryX=0.49;entryY=1;entryDx=0;entryDy=0;entryPerimeter=0;fontSize=12;fontColor=#FFFFFF;" parent="1" source="55" edge="1">
                    <mxGeometry relative="1" as="geometry">
                        <mxPoint x="730" y="-40" as="targetPoint"/>
                    </mxGeometry>
                </mxCell>
                <mxCell id="55" value="Octupus&lt;br&gt;Crawler" style="rounded=1;whiteSpace=wrap;html=1;" parent="1" vertex="1">
                    <mxGeometry x="670" y="20" width="120" height="60" as="geometry"/>
                </mxCell>
                <mxCell id="63" value="Finance API" style="rounded=1;whiteSpace=wrap;html=1;" parent="1" vertex="1">
                    <mxGeometry x="520" y="120" width="120" height="60" as="geometry"/>
                </mxCell>
                <mxCell id="68" style="edgeStyle=orthogonalEdgeStyle;html=1;entryX=0.5;entryY=1;entryDx=0;entryDy=0;" parent="1" source="66" target="55" edge="1">
                    <mxGeometry relative="1" as="geometry"/>
                </mxCell>
                <mxCell id="66" value="Octupus&lt;br&gt;DB API" style="rounded=1;whiteSpace=wrap;html=1;" parent="1" vertex="1">
                    <mxGeometry x="670" y="120" width="120" height="60" as="geometry"/>
                </mxCell>
                <mxCell id="71" value="Pando" style="rounded=1;whiteSpace=wrap;html=1;" parent="1" vertex="1">
                    <mxGeometry x="820" y="120" width="120" height="60" as="geometry"/>
                </mxCell>
                <mxCell id="72" value="Pando Graph Analyz" style="rounded=1;whiteSpace=wrap;html=1;" parent="1" vertex="1">
                    <mxGeometry x="820" y="220" width="120" height="60" as="geometry"/>
                </mxCell>
                <mxCell id="152" style="edgeStyle=orthogonalEdgeStyle;html=1;entryX=0.5;entryY=1;entryDx=0;entryDy=0;fontSize=12;fontColor=#FFFFFF;" parent="1" source="73" target="72" edge="1">
                    <mxGeometry relative="1" as="geometry"/>
                </mxCell>
                <mxCell id="73" value="Pando BackEnd" style="rounded=1;whiteSpace=wrap;html=1;" parent="1" vertex="1">
                    <mxGeometry x="820" y="590" width="120" height="60" as="geometry"/>
                </mxCell>
                <mxCell id="150" style="edgeStyle=orthogonalEdgeStyle;html=1;entryX=0.5;entryY=1;entryDx=0;entryDy=0;fontSize=12;fontColor=#FFFFFF;" parent="1" source="74" target="73" edge="1">
                    <mxGeometry relative="1" as="geometry"/>
                </mxCell>
                <mxCell id="74" value="Pando FrontEnd" style="rounded=1;whiteSpace=wrap;html=1;" parent="1" vertex="1">
                    <mxGeometry x="820" y="690" width="120" height="60" as="geometry"/>
                </mxCell>
                <mxCell id="75" style="edgeStyle=orthogonalEdgeStyle;html=1;exitX=1;exitY=0.5;exitDx=0;exitDy=0;entryX=1;entryY=0.444;entryDx=0;entryDy=0;entryPerimeter=0;" parent="1" source="69" target="69" edge="1">
                    <mxGeometry relative="1" as="geometry"/>
                </mxCell>
                <mxCell id="79" value="Companies&lt;br&gt;Emploies" style="ellipse;shape=cloud;whiteSpace=wrap;html=1;" parent="1" vertex="1">
                    <mxGeometry x="820" y="-130" width="110" height="80" as="geometry"/>
                </mxCell>
                <mxCell id="83" value="&lt;font color=&quot;#cc0000&quot;&gt;Suza Graph core&lt;/font&gt;" style="rounded=1;whiteSpace=wrap;html=1;" parent="1" vertex="1">
                    <mxGeometry x="970" y="220" width="120" height="60" as="geometry"/>
                </mxCell>
                <mxCell id="153" style="edgeStyle=orthogonalEdgeStyle;html=1;entryX=0.5;entryY=1;entryDx=0;entryDy=0;fontSize=12;fontColor=#FFFFFF;" parent="1" source="84" target="83" edge="1">
                    <mxGeometry relative="1" as="geometry"/>
                </mxCell>
                <mxCell id="84" value="Suza BackEnd&lt;br&gt;FPA" style="rounded=1;whiteSpace=wrap;html=1;" parent="1" vertex="1">
                    <mxGeometry x="970" y="590" width="120" height="60" as="geometry"/>
                </mxCell>
                <mxCell id="86" value="Suza UI" style="rounded=1;whiteSpace=wrap;html=1;" parent="1" vertex="1">
                    <mxGeometry x="970" y="20" width="120" height="60" as="geometry"/>
                </mxCell>
                <mxCell id="87" value="Suza" style="rounded=1;whiteSpace=wrap;html=1;" parent="1" vertex="1">
                    <mxGeometry x="970" y="120" width="120" height="60" as="geometry"/>
                </mxCell>
                <mxCell id="105" value="OMS API" style="shape=document;whiteSpace=wrap;html=1;boundedLbl=1;fontSize=12;fontColor=default;fillColor=default;size=0.25;" parent="1" vertex="1">
                    <mxGeometry x="-85" y="-80" width="65" height="40" as="geometry"/>
                </mxCell>
                <mxCell id="154" style="edgeStyle=orthogonalEdgeStyle;html=1;entryX=1;entryY=0.5;entryDx=0;entryDy=0;fontSize=12;fontColor=#FFFFFF;" parent="1" source="111" target="139" edge="1">
                    <mxGeometry relative="1" as="geometry">
                        <Array as="points">
                            <mxPoint x="30" y="150"/>
                            <mxPoint x="30" y="50"/>
                        </Array>
                    </mxGeometry>
                </mxCell>
                <mxCell id="156" style="edgeStyle=orthogonalEdgeStyle;html=1;entryX=0.5;entryY=1;entryDx=0;entryDy=0;fontSize=12;fontColor=#FFFFFF;" parent="1" source="111" target="155" edge="1">
                    <mxGeometry relative="1" as="geometry"/>
                </mxCell>
                <mxCell id="111" value="Capital Raw Data" style="rounded=1;whiteSpace=wrap;html=1;dashed=1;strokeColor=#CC0000;" parent="1" vertex="1">
                    <mxGeometry x="40" y="120" width="120" height="60" as="geometry"/>
                </mxCell>
                <mxCell id="115" value="news and &lt;br&gt;social media&lt;br&gt;&amp;nbsp;channels" style="ellipse;shape=cloud;whiteSpace=wrap;html=1;" parent="1" vertex="1">
                    <mxGeometry x="177" y="-120" width="150" height="90" as="geometry"/>
                </mxCell>
                <mxCell id="117" value="Data Provider websites" style="ellipse;shape=cloud;whiteSpace=wrap;html=1;" parent="1" vertex="1">
                    <mxGeometry x="354" y="-120" width="120" height="80" as="geometry"/>
                </mxCell>
                <mxCell id="119" value="TSE webs" style="ellipse;shape=cloud;whiteSpace=wrap;html=1;" parent="1" vertex="1">
                    <mxGeometry x="-12.5" y="-100" width="112.5" height="60" as="geometry"/>
                </mxCell>
                <mxCell id="136" style="edgeStyle=orthogonalEdgeStyle;html=1;fontSize=12;fontColor=#FFFFFF;startArrow=none;" parent="1" source="217" target="130" edge="1">
                    <mxGeometry relative="1" as="geometry"/>
                </mxCell>
                <mxCell id="138" style="edgeStyle=orthogonalEdgeStyle;html=1;entryX=0.5;entryY=1;entryDx=0;entryDy=0;fontSize=12;fontColor=#FFFFFF;" parent="1" source="126" target="128" edge="1">
                    <mxGeometry relative="1" as="geometry">
                        <Array as="points">
                            <mxPoint x="-250" y="480"/>
                            <mxPoint x="-60" y="480"/>
                        </Array>
                    </mxGeometry>
                </mxCell>
                <mxCell id="143" style="edgeStyle=orthogonalEdgeStyle;html=1;entryX=0;entryY=0.5;entryDx=0;entryDy=0;fontSize=12;fontColor=#FFFFFF;" parent="1" source="126" target="139" edge="1">
                    <mxGeometry relative="1" as="geometry">
                        <Array as="points">
                            <mxPoint x="-250" y="470"/>
                            <mxPoint x="-150" y="470"/>
                            <mxPoint x="-150" y="50"/>
                        </Array>
                    </mxGeometry>
                </mxCell>
                <mxCell id="219" style="edgeStyle=orthogonalEdgeStyle;html=1;entryX=0.5;entryY=1;entryDx=0;entryDy=0;" edge="1" parent="1" source="126" target="217">
                    <mxGeometry relative="1" as="geometry"/>
                </mxCell>
                <mxCell id="126" value="Pluto BackEnd" style="rounded=1;whiteSpace=wrap;html=1;" parent="1" vertex="1">
                    <mxGeometry x="-310" y="600" width="120" height="60" as="geometry"/>
                </mxCell>
                <mxCell id="135" style="edgeStyle=orthogonalEdgeStyle;html=1;entryX=0.5;entryY=1;entryDx=0;entryDy=0;fontSize=12;fontColor=#FFFFFF;startArrow=none;" parent="1" source="215" target="129" edge="1">
                    <mxGeometry relative="1" as="geometry"/>
                </mxCell>
                <mxCell id="220" style="edgeStyle=orthogonalEdgeStyle;html=1;entryX=0.5;entryY=1;entryDx=0;entryDy=0;" edge="1" parent="1" source="127" target="215">
                    <mxGeometry relative="1" as="geometry"/>
                </mxCell>
                <mxCell id="127" value="Spout BackEnd" style="rounded=1;whiteSpace=wrap;html=1;" parent="1" vertex="1">
                    <mxGeometry x="-490" y="600" width="120" height="60" as="geometry"/>
                </mxCell>
                <mxCell id="141" style="edgeStyle=orthogonalEdgeStyle;html=1;fontSize=12;fontColor=#FFFFFF;" parent="1" source="128" target="139" edge="1">
                    <mxGeometry relative="1" as="geometry">
                        <Array as="points">
                            <mxPoint x="10" y="250"/>
                            <mxPoint x="10" y="50"/>
                        </Array>
                    </mxGeometry>
                </mxCell>
                <mxCell id="128" value="DataFeed&lt;br&gt;Signaling" style="rounded=1;whiteSpace=wrap;html=1;" parent="1" vertex="1">
                    <mxGeometry x="-120" y="220" width="120" height="60" as="geometry"/>
                </mxCell>
                <mxCell id="145" style="edgeStyle=orthogonalEdgeStyle;html=1;entryX=0;entryY=0.5;entryDx=0;entryDy=0;fontSize=12;fontColor=#FFFFFF;startArrow=none;" parent="1" source="211" target="139" edge="1">
                    <mxGeometry relative="1" as="geometry">
                        <Array as="points">
                            <mxPoint x="-430" y="50"/>
                        </Array>
                    </mxGeometry>
                </mxCell>
                <mxCell id="213" style="edgeStyle=orthogonalEdgeStyle;html=1;entryX=0.5;entryY=1;entryDx=0;entryDy=0;" edge="1" parent="1" source="129" target="211">
                    <mxGeometry relative="1" as="geometry"/>
                </mxCell>
                <mxCell id="214" style="edgeStyle=orthogonalEdgeStyle;html=1;entryX=0;entryY=0.5;entryDx=0;entryDy=0;" edge="1" parent="1" source="129" target="139">
                    <mxGeometry relative="1" as="geometry">
                        <Array as="points">
                            <mxPoint x="-350" y="250"/>
                            <mxPoint x="-350" y="50"/>
                        </Array>
                    </mxGeometry>
                </mxCell>
                <mxCell id="129" value="Spout&amp;nbsp; Core" style="rounded=1;whiteSpace=wrap;html=1;" parent="1" vertex="1">
                    <mxGeometry x="-490" y="220" width="120" height="60" as="geometry"/>
                </mxCell>
                <mxCell id="142" style="edgeStyle=orthogonalEdgeStyle;html=1;entryX=0;entryY=0.5;entryDx=0;entryDy=0;fontSize=12;fontColor=#FFFFFF;" parent="1" source="130" target="139" edge="1">
                    <mxGeometry relative="1" as="geometry">
                        <Array as="points">
                            <mxPoint x="-160" y="250"/>
                            <mxPoint x="-160" y="50"/>
                        </Array>
                    </mxGeometry>
                </mxCell>
                <mxCell id="209" style="edgeStyle=none;html=1;entryX=0.5;entryY=1;entryDx=0;entryDy=0;" edge="1" parent="1" source="130" target="208">
                    <mxGeometry relative="1" as="geometry"/>
                </mxCell>
                <mxCell id="130" value="Pluto&amp;nbsp; Core" style="rounded=1;whiteSpace=wrap;html=1;" parent="1" vertex="1">
                    <mxGeometry x="-310" y="220" width="120" height="60" as="geometry"/>
                </mxCell>
                <mxCell id="133" style="edgeStyle=orthogonalEdgeStyle;html=1;fontSize=12;fontColor=#FFFFFF;" parent="1" source="131" target="126" edge="1">
                    <mxGeometry relative="1" as="geometry"/>
                </mxCell>
                <mxCell id="131" value="Pluto FrontEnd" style="rounded=1;whiteSpace=wrap;html=1;" parent="1" vertex="1">
                    <mxGeometry x="-310" y="690" width="120" height="60" as="geometry"/>
                </mxCell>
                <mxCell id="134" style="edgeStyle=orthogonalEdgeStyle;html=1;fontSize=12;fontColor=#FFFFFF;" parent="1" source="132" target="127" edge="1">
                    <mxGeometry relative="1" as="geometry"/>
                </mxCell>
                <mxCell id="132" value="Spout FrontEnd" style="rounded=1;whiteSpace=wrap;html=1;" parent="1" vertex="1">
                    <mxGeometry x="-490" y="690" width="120" height="60" as="geometry"/>
                </mxCell>
                <mxCell id="222" style="edgeStyle=orthogonalEdgeStyle;html=1;entryX=0.384;entryY=0.96;entryDx=0;entryDy=0;entryPerimeter=0;" edge="1" parent="1" source="139" target="105">
                    <mxGeometry relative="1" as="geometry"/>
                </mxCell>
                <mxCell id="139" value="OMS Driver" style="rounded=1;whiteSpace=wrap;html=1;" parent="1" vertex="1">
                    <mxGeometry x="-120" y="20" width="120" height="60" as="geometry"/>
                </mxCell>
                <mxCell id="157" style="edgeStyle=orthogonalEdgeStyle;html=1;entryX=0.419;entryY=1.015;entryDx=0;entryDy=0;entryPerimeter=0;fontSize=12;fontColor=#FFFFFF;" parent="1" source="155" edge="1">
                    <mxGeometry relative="1" as="geometry">
                        <mxPoint x="137.23500000000013" y="-39.399999999999864" as="targetPoint"/>
                    </mxGeometry>
                </mxCell>
                <mxCell id="158" style="edgeStyle=orthogonalEdgeStyle;html=1;entryX=0.55;entryY=0.95;entryDx=0;entryDy=0;entryPerimeter=0;fontSize=12;fontColor=#FFFFFF;" parent="1" source="155" target="119" edge="1">
                    <mxGeometry relative="1" as="geometry"/>
                </mxCell>
                <mxCell id="155" value="TSE Driver" style="rounded=1;whiteSpace=wrap;html=1;dashed=1;strokeColor=#CC0000;" parent="1" vertex="1">
                    <mxGeometry x="40" y="20" width="120" height="60" as="geometry"/>
                </mxCell>
                <mxCell id="159" value="DataFeed Data" style="rounded=1;whiteSpace=wrap;html=1;" parent="1" vertex="1">
                    <mxGeometry x="-120" y="120" width="120" height="60" as="geometry"/>
                </mxCell>
                <mxCell id="230" style="edgeStyle=orthogonalEdgeStyle;html=1;entryX=0.5;entryY=1;entryDx=0;entryDy=0;" edge="1" parent="1">
                    <mxGeometry relative="1" as="geometry">
                        <mxPoint x="-600" y="220" as="sourcePoint"/>
                        <mxPoint x="-600" y="180" as="targetPoint"/>
                    </mxGeometry>
                </mxCell>
                <mxCell id="231" style="edgeStyle=orthogonalEdgeStyle;html=1;entryX=0;entryY=0.5;entryDx=0;entryDy=0;" edge="1" parent="1" target="139">
                    <mxGeometry relative="1" as="geometry">
                        <mxPoint x="-600" y="120" as="sourcePoint"/>
                        <Array as="points">
                            <mxPoint x="-600" y="50"/>
                        </Array>
                    </mxGeometry>
                </mxCell>
                <mxCell id="166" value="TSE API" style="shape=document;whiteSpace=wrap;html=1;boundedLbl=1;fontSize=12;fontColor=default;fillColor=default;size=0.25;" parent="1" vertex="1">
                    <mxGeometry x="107.5" y="-80" width="65" height="40" as="geometry"/>
                </mxCell>
                <mxCell id="167" value="Accounting DBs" style="shape=document;whiteSpace=wrap;html=1;boundedLbl=1;fontSize=12;fontColor=default;fillColor=default;size=0.25;" parent="1" vertex="1">
                    <mxGeometry x="683.75" y="-79" width="92.5" height="40" as="geometry"/>
                </mxCell>
                <mxCell id="172" value="" style="group;fillColor=default;" parent="1" vertex="1" connectable="0">
                    <mxGeometry x="-823" y="960" width="820" height="160" as="geometry"/>
                </mxCell>
                <mxCell id="171" value="" style="rounded=0;whiteSpace=wrap;html=1;fontSize=12;fontColor=#FFFFFF;strokeColor=#FFFFFF;fillColor=none;dashed=1;dashPattern=1 4;" parent="172" vertex="1">
                    <mxGeometry y="30" width="820" height="130" as="geometry"/>
                </mxCell>
                <mxCell id="94" value="&lt;font color=&quot;#ffffff&quot;&gt;bundle of product to be distil&lt;/font&gt;" style="whiteSpace=wrap;html=1;dashed=1;fontColor=#CC0000;fillColor=none;" parent="172" vertex="1">
                    <mxGeometry x="10" y="50" width="170" height="40" as="geometry"/>
                </mxCell>
                <mxCell id="97" value="to discuss(Dr.Arman)" style="whiteSpace=wrap;html=1;dashed=1;fillColor=#f5f5f5;strokeColor=#666666;gradientColor=#b3b3b3;fontColor=#333333;" parent="172" vertex="1">
                    <mxGeometry x="10" y="100" width="170" height="40" as="geometry"/>
                </mxCell>
                <mxCell id="98" value="in act" style="whiteSpace=wrap;html=1;dashed=1;fontColor=#ffffff;fillColor=#647687;strokeColor=#314354;" parent="172" vertex="1">
                    <mxGeometry x="200" y="50" width="170" height="40" as="geometry"/>
                </mxCell>
                <mxCell id="99" value="to document(POs)" style="whiteSpace=wrap;html=1;fontColor=#CC0000;" parent="172" vertex="1">
                    <mxGeometry x="200" y="100" width="170" height="40" as="geometry"/>
                </mxCell>
                <mxCell id="100" value="cloud service" style="ellipse;shape=cloud;whiteSpace=wrap;html=1;" parent="172" vertex="1">
                    <mxGeometry x="400" y="40" width="120" height="50" as="geometry"/>
                </mxCell>
                <mxCell id="112" value="to develop" style="rounded=1;whiteSpace=wrap;html=1;dashed=1;strokeColor=#CC0000;" parent="172" vertex="1">
                    <mxGeometry x="400" y="100" width="120" height="40" as="geometry"/>
                </mxCell>
                <mxCell id="122" value="" style="rhombus;whiteSpace=wrap;html=1;fontSize=12;fontColor=#FFFFFF;strokeColor=#CCCC00;fillColor=#CCCC00;" parent="172" vertex="1">
                    <mxGeometry x="560" y="110" width="30" height="30" as="geometry"/>
                </mxCell>
                <mxCell id="124" value="Components" style="rounded=1;whiteSpace=wrap;html=1;" parent="172" vertex="1">
                    <mxGeometry x="690" y="50" width="120" height="30" as="geometry"/>
                </mxCell>
                <mxCell id="168" value="&lt;span style=&quot;color: rgb(255 , 255 , 255)&quot;&gt;API Services&lt;/span&gt;" style="shape=document;whiteSpace=wrap;html=1;boundedLbl=1;fontSize=12;fontColor=default;fillColor=default;size=0.25;" parent="172" vertex="1">
                    <mxGeometry x="558.5" y="50" width="92.5" height="40" as="geometry"/>
                </mxCell>
                <mxCell id="169" value="checked" style="text;html=1;strokeColor=none;fillColor=none;align=center;verticalAlign=middle;whiteSpace=wrap;rounded=0;fontSize=12;fontColor=default;" parent="172" vertex="1">
                    <mxGeometry x="590" y="110" width="60" height="30" as="geometry"/>
                </mxCell>
                <mxCell id="170" value="Style Hint" style="text;html=1;strokeColor=default;fillColor=none;align=center;verticalAlign=middle;whiteSpace=wrap;rounded=0;fontSize=12;fontColor=default;dashed=1;dashPattern=1 4;" parent="172" vertex="1">
                    <mxGeometry width="60" height="30" as="geometry"/>
                </mxCell>
                <mxCell id="179" value="" style="rhombus;whiteSpace=wrap;html=1;fontSize=12;fontColor=#FFFFFF;strokeColor=none;fillColor=#FF8000;" parent="172" vertex="1">
                    <mxGeometry x="690" y="110" width="30" height="30" as="geometry"/>
                </mxCell>
                <mxCell id="180" value="not exist" style="text;html=1;strokeColor=none;fillColor=none;align=center;verticalAlign=middle;whiteSpace=wrap;rounded=0;fontSize=12;fontColor=default;" parent="172" vertex="1">
                    <mxGeometry x="720" y="110" width="60" height="30" as="geometry"/>
                </mxCell>
                <mxCell id="188" value="Processed Data" style="rounded=1;whiteSpace=wrap;html=1;rotation=90;" parent="1" vertex="1">
                    <mxGeometry x="1090" y="330" width="100" height="40" as="geometry"/>
                </mxCell>
                <mxCell id="192" style="edgeStyle=orthogonalEdgeStyle;html=1;entryX=0.5;entryY=1;entryDx=0;entryDy=0;fontFamily=Helvetica;fontSize=12;fontColor=#FFFFFF;" parent="1" source="189" target="3" edge="1">
                    <mxGeometry relative="1" as="geometry"/>
                </mxCell>
                <mxCell id="189" value="NLP Data Storage&lt;br&gt;(Processed)" style="rounded=1;whiteSpace=wrap;html=1;" parent="1" vertex="1">
                    <mxGeometry x="200" y="320" width="120" height="60" as="geometry"/>
                </mxCell>
                <mxCell id="191" style="edgeStyle=orthogonalEdgeStyle;html=1;entryX=0.5;entryY=1;entryDx=0;entryDy=0;fontFamily=Helvetica;fontSize=12;fontColor=#FFFFFF;" parent="1" source="190" target="189" edge="1">
                    <mxGeometry relative="1" as="geometry"/>
                </mxCell>
                <mxCell id="190" value="NLP API" style="rounded=1;whiteSpace=wrap;html=1;" parent="1" vertex="1">
                    <mxGeometry x="200" y="420" width="120" height="60" as="geometry"/>
                </mxCell>
                <mxCell id="201" style="edgeStyle=orthogonalEdgeStyle;html=1;entryX=0.5;entryY=1;entryDx=0;entryDy=0;fontFamily=Helvetica;fontSize=12;fontColor=#FFFFFF;" parent="1" source="198" target="199" edge="1">
                    <mxGeometry relative="1" as="geometry"/>
                </mxCell>
                <mxCell id="198" value="TSE API" style="rounded=1;whiteSpace=wrap;html=1;" parent="1" vertex="1">
                    <mxGeometry x="42.5" y="420" width="120" height="60" as="geometry"/>
                </mxCell>
                <mxCell id="202" style="edgeStyle=orthogonalEdgeStyle;html=1;fontFamily=Helvetica;fontSize=12;fontColor=#FFFFFF;" parent="1" source="199" target="200" edge="1">
                    <mxGeometry relative="1" as="geometry"/>
                </mxCell>
                <mxCell id="199" value="TSE Data (Reflected)" style="rounded=1;whiteSpace=wrap;html=1;" parent="1" vertex="1">
                    <mxGeometry x="42.5" y="320" width="120" height="60" as="geometry"/>
                </mxCell>
                <mxCell id="203" style="edgeStyle=orthogonalEdgeStyle;html=1;entryX=0.5;entryY=1;entryDx=0;entryDy=0;fontFamily=Helvetica;fontSize=12;fontColor=#FFFFFF;" parent="1" source="200" target="111" edge="1">
                    <mxGeometry relative="1" as="geometry">
                        <Array as="points">
                            <mxPoint x="100" y="210"/>
                            <mxPoint x="100" y="210"/>
                        </Array>
                    </mxGeometry>
                </mxCell>
                <mxCell id="200" value="Capital Data Standardization" style="rounded=1;whiteSpace=wrap;html=1;dashed=1;" parent="1" vertex="1">
                    <mxGeometry x="42.5" y="220" width="120" height="60" as="geometry"/>
                </mxCell>
                <mxCell id="204" value="DataFeed&lt;br&gt;Signal DB" style="rounded=1;whiteSpace=wrap;html=1;" vertex="1" parent="1">
                    <mxGeometry x="-120.5" y="320" width="120" height="60" as="geometry"/>
                </mxCell>
                <mxCell id="233" style="edgeStyle=orthogonalEdgeStyle;html=1;entryX=0.5;entryY=1;entryDx=0;entryDy=0;" edge="1" parent="1">
                    <mxGeometry relative="1" as="geometry">
                        <mxPoint x="-760" y="420" as="sourcePoint"/>
                        <mxPoint x="-760" y="280" as="targetPoint"/>
                    </mxGeometry>
                </mxCell>
                <mxCell id="210" style="edgeStyle=orthogonalEdgeStyle;html=1;entryX=0;entryY=0.5;entryDx=0;entryDy=0;" edge="1" parent="1" source="208" target="139">
                    <mxGeometry relative="1" as="geometry">
                        <Array as="points">
                            <mxPoint x="-240" y="50"/>
                        </Array>
                    </mxGeometry>
                </mxCell>
                <mxCell id="208" value="Pluto&lt;br&gt;OMS Driver" style="rounded=1;whiteSpace=wrap;html=1;" vertex="1" parent="1">
                    <mxGeometry x="-310" y="120" width="120" height="60" as="geometry"/>
                </mxCell>
                <mxCell id="211" value="Spout&lt;br&gt;OMS Driver" style="rounded=1;whiteSpace=wrap;html=1;" vertex="1" parent="1">
                    <mxGeometry x="-490" y="120" width="120" height="60" as="geometry"/>
                </mxCell>
                <mxCell id="215" value="Spout&amp;nbsp; Core DB" style="rounded=1;whiteSpace=wrap;html=1;" vertex="1" parent="1">
                    <mxGeometry x="-490" y="320" width="120" height="60" as="geometry"/>
                </mxCell>
                <mxCell id="217" value="Pluto&amp;nbsp; Core DB" style="rounded=1;whiteSpace=wrap;html=1;" vertex="1" parent="1">
                    <mxGeometry x="-310" y="320" width="120" height="60" as="geometry"/>
                </mxCell>
                <mxCell id="227" value="" style="rounded=1;whiteSpace=wrap;html=1;dashed=1;fillColor=none;" vertex="1" parent="1">
                    <mxGeometry x="510" y="10" width="140" height="180" as="geometry"/>
                </mxCell>
                <mxCell id="232" style="edgeStyle=orthogonalEdgeStyle;html=1;entryX=0;entryY=0.5;entryDx=0;entryDy=0;exitX=1;exitY=0.5;exitDx=0;exitDy=0;" edge="1" parent="1" target="200">
                    <mxGeometry relative="1" as="geometry">
                        <mxPoint x="-700" y="250" as="sourcePoint"/>
                        <Array as="points">
                            <mxPoint x="-680" y="250"/>
                            <mxPoint x="-680" y="90"/>
                            <mxPoint x="20" y="90"/>
                            <mxPoint x="20" y="250"/>
                        </Array>
                    </mxGeometry>
                </mxCell>
                <mxCell id="235" value="BackTest" style="rounded=1;whiteSpace=wrap;html=1;" vertex="1" parent="1">
                    <mxGeometry x="-660" y="120" width="120" height="60" as="geometry"/>
                </mxCell>
                <mxCell id="185" value="" style="rhombus;whiteSpace=wrap;html=1;fontSize=12;fontColor=#FFFFFF;strokeColor=none;fillColor=#FF8000;" parent="1" vertex="1">
                    <mxGeometry x="-670" y="110" width="30" height="30" as="geometry"/>
                </mxCell>
                <mxCell id="236" value="BackTest" style="rounded=1;whiteSpace=wrap;html=1;" vertex="1" parent="1">
                    <mxGeometry x="-660" y="220" width="120" height="60" as="geometry"/>
                </mxCell>
                <mxCell id="186" value="" style="rhombus;whiteSpace=wrap;html=1;fontSize=12;fontColor=#FFFFFF;strokeColor=none;fillColor=#FF8000;" parent="1" vertex="1">
                    <mxGeometry x="-670" y="210" width="30" height="30" as="geometry"/>
                </mxCell>
                <mxCell id="237" value="&lt;span style=&quot;color: rgb(255 , 255 , 255)&quot;&gt;Queue Prediction&lt;/span&gt;&lt;br style=&quot;color: rgb(255 , 255 , 255)&quot;&gt;&lt;span style=&quot;color: rgb(255 , 255 , 255)&quot;&gt;Model&lt;/span&gt;" style="rounded=1;whiteSpace=wrap;html=1;" vertex="1" parent="1">
                    <mxGeometry x="-820" y="220" width="120" height="60" as="geometry"/>
                </mxCell>
                <mxCell id="238" value="&lt;span style=&quot;color: rgb(255 , 255 , 255)&quot;&gt;Queue Prediction&lt;/span&gt;&lt;br style=&quot;color: rgb(255 , 255 , 255)&quot;&gt;&lt;span style=&quot;color: rgb(255 , 255 , 255)&quot;&gt;API&lt;/span&gt;" style="rounded=1;whiteSpace=wrap;html=1;" vertex="1" parent="1">
                    <mxGeometry x="-820" y="420" width="120" height="60" as="geometry"/>
                </mxCell>
                <mxCell id="239" value="&lt;span style=&quot;color: rgb(255 , 255 , 255)&quot;&gt;Zeppelin&lt;/span&gt;" style="rounded=1;whiteSpace=wrap;html=1;" vertex="1" parent="1">
                    <mxGeometry x="-970" y="420" width="120" height="60" as="geometry"/>
                </mxCell>
                <mxCell id="240" value="&lt;span style=&quot;color: rgb(255 , 255 , 255)&quot;&gt;Kong&lt;/span&gt;" style="rounded=1;whiteSpace=wrap;html=1;" vertex="1" parent="1">
                    <mxGeometry x="-1110" y="420" width="120" height="60" as="geometry"/>
                </mxCell>
                <mxCell id="183" value="" style="rhombus;whiteSpace=wrap;html=1;fontSize=12;fontColor=#FFFFFF;strokeColor=none;fillColor=#FF8000;" parent="1" vertex="1">
                    <mxGeometry x="-980" y="410" width="30" height="30" as="geometry"/>
                </mxCell>
                <mxCell id="184" value="" style="rhombus;whiteSpace=wrap;html=1;fontSize=12;fontColor=#FFFFFF;strokeColor=none;fillColor=#FF8000;" parent="1" vertex="1">
                    <mxGeometry x="-1120" y="410" width="30" height="30" as="geometry"/>
                </mxCell>
                <mxCell id="241" value="&lt;span style=&quot;color: rgb(255 , 255 , 255)&quot;&gt;ibmo&lt;/span&gt;" style="rounded=1;whiteSpace=wrap;html=1;" vertex="1" parent="1">
                    <mxGeometry x="-970" y="600" width="120" height="60" as="geometry"/>
                </mxCell>
                <mxCell id="242" value="&lt;span style=&quot;color: rgb(255 , 255 , 255)&quot;&gt;Pardis&lt;/span&gt;" style="rounded=1;whiteSpace=wrap;html=1;" vertex="1" parent="1">
                    <mxGeometry x="-1110" y="600" width="120" height="60" as="geometry"/>
                </mxCell>
                <mxCell id="181" value="" style="rhombus;whiteSpace=wrap;html=1;fontSize=12;fontColor=#FFFFFF;strokeColor=none;fillColor=#FF8000;" parent="1" vertex="1">
                    <mxGeometry x="-980" y="590" width="30" height="30" as="geometry"/>
                </mxCell>
                <mxCell id="182" value="" style="rhombus;whiteSpace=wrap;html=1;fontSize=12;fontColor=#FFFFFF;strokeColor=none;fillColor=#FF8000;" parent="1" vertex="1">
                    <mxGeometry x="-1120" y="590" width="30" height="30" as="geometry"/>
                </mxCell>
            </root>
        </mxGraphModel>
    </diagram>
</mxfile>